<?xml version="1.0" encoding="UTF-8"?>
<svg xmlns="http://www.w3.org/2000/svg" id="Layer_2" data-name="Layer 2" viewBox="0 0 974.92 774.12">
  <defs>
    <style>
      .cls-1 {
        fill: #ed337d;
      }

      .cls-2 {
        fill: #fff;
      }
    </style>
  </defs>
  <g id="Layer_1-2" data-name="Layer 1">
    <g>
      <g>
        <g>
          <path class="cls-2" d="M.51,319.1h111.46c80.26,0,135.29,48.37,135.29,122.67s-55.03,122.67-135.29,122.67H.51v-245.34ZM109.16,517.83c48.72,0,80.61-29.09,80.61-76.06s-31.89-76.06-80.61-76.06h-51.87v152.11h51.87Z"></path>
          <path class="cls-2" d="M447.39,511.87h-113.91l-21.73,52.57h-58.18l109.35-245.34h56.08l109.7,245.34h-59.58l-21.73-52.57ZM429.51,468.76l-38.9-93.93-38.91,93.93h77.81Z"></path>
          <path class="cls-2" d="M585.87,365.36h-78.51v-46.26h213.8v46.26h-78.51v199.08h-56.78v-199.08Z"></path>
          <path class="cls-2" d="M893.6,511.87h-113.91l-21.73,52.57h-58.18l109.35-245.34h56.08l109.7,245.34h-59.58l-21.73-52.57ZM875.73,468.76l-38.9-93.93-38.91,93.93h77.81Z"></path>
        </g>
        <g>
          <path class="cls-2" d="M193.82,192.81h-113.91l-21.73,52.57H0L109.35.04h56.08l109.7,245.34h-59.58l-21.73-52.57ZM175.95,149.7l-38.9-93.93-38.9,93.93h77.81Z"></path>
          <path class="cls-2" d="M309.59.04h56.78v245.34h-56.78V.04Z"></path>
        </g>
        <polygon class="cls-1" points="716.5 40.9 716.5 0 675.61 0 634.71 0 634.71 40.9 593.81 40.9 593.81 0 552.91 0 512.02 0 512.02 40.9 471.12 40.9 471.12 81.79 471.12 122.69 512.02 122.69 512.02 163.59 552.91 163.59 552.91 204.49 593.81 204.49 593.81 245.38 634.71 245.38 634.71 204.49 675.61 204.49 675.61 163.59 716.5 163.59 716.5 122.69 757.4 122.69 757.4 81.79 757.4 40.9 716.5 40.9"></polygon>
      </g>
      <g>
        <path class="cls-1" d="M119.17,685.01c0,30.36-22.77,49.23-59.15,49.23h-27.44v37.55H1.06v-136.21h58.96c36.39,0,59.15,18.87,59.15,49.42ZM87.26,685.01c0-14.98-9.73-23.74-28.99-23.74h-25.69v47.28h25.69c19.26,0,28.99-8.76,28.99-23.54Z"></path>
        <path class="cls-1" d="M130.69,703.69c0-40.47,31.52-70.44,74.52-70.44s74.52,29.77,74.52,70.44-31.72,70.44-74.52,70.44-74.52-29.97-74.52-70.44ZM247.83,703.69c0-25.88-18.29-43.59-42.61-43.59s-42.61,17.71-42.61,43.59,18.29,43.59,42.61,43.59,42.61-17.71,42.61-43.59Z"></path>
        <path class="cls-1" d="M300.29,635.58h61.88c44.56,0,75.11,26.85,75.11,68.1s-30.55,68.1-75.11,68.1h-61.88v-136.21ZM360.61,745.91c27.05,0,44.75-16.15,44.75-42.22s-17.71-42.22-44.75-42.22h-28.8v84.45h28.8Z"></path>
        <path class="cls-1" d="M449.07,703.69c0-41.06,31.52-70.44,73.94-70.44,23.54,0,43.2,8.56,56.04,24.13l-20.24,18.68c-9.14-10.51-20.62-15.96-34.25-15.96-25.49,0-43.59,17.9-43.59,43.59s18.1,43.59,43.59,43.59c13.62,0,25.1-5.45,34.25-16.15l20.24,18.68c-12.84,15.76-32.49,24.32-56.23,24.32-42.22,0-73.75-29.38-73.75-70.44Z"></path>
        <path class="cls-1" d="M688.41,742.6h-63.24l-12.06,29.19h-32.3l60.71-136.21h31.13l60.9,136.21h-33.08l-12.06-29.19ZM678.48,718.67l-21.6-52.15-21.6,52.15h43.2Z"></path>
        <path class="cls-1" d="M737.73,758.36l10.7-23.74c11.48,8.37,28.6,14.2,44.95,14.2,18.68,0,26.27-6.23,26.27-14.59,0-25.49-79.19-7.98-79.19-58.57,0-23.15,18.68-42.42,57.4-42.42,17.12,0,34.63,4.09,47.28,12.06l-9.73,23.93c-12.65-7.2-25.68-10.7-37.75-10.7-18.68,0-25.88,7.01-25.88,15.57,0,25.1,79.19,7.78,79.19,57.79,0,22.77-18.87,42.22-57.79,42.22-21.6,0-43.39-6.42-55.46-15.76Z"></path>
        <path class="cls-1" d="M899.02,661.27h-43.59v-25.68h118.69v25.68h-43.59v110.52h-31.52v-110.52Z"></path>
      </g>
    </g>
  </g>
</svg>
