<svg viewBox="33 42 380 104" xmlns="http://www.w3.org/2000/svg">

<g transform="translate(90, 85)">
  <circle cx="0" cy="0" r="13" fill="#185FA5"/>
  
  <circle cx="-30" cy="-30" r="7" fill="#185FA5" opacity="0.8"/>
  <circle cx="20" cy="-34" r="6" fill="#185FA5" opacity="0.6"/>
  <circle cx="-50" cy="-12" r="5" fill="#185FA5" opacity="0.45"/>
  
  <circle cx="-30" cy="30" r="7" fill="#185FA5" opacity="0.8"/>
  <circle cx="20" cy="34" r="6" fill="#185FA5" opacity="0.6"/>
  <circle cx="-50" cy="12" r="5" fill="#185FA5" opacity="0.45"/>
  
  <circle cx="36" cy="-10" r="4.5" fill="#185FA5" opacity="0.4"/>
  <circle cx="36" cy="10" r="4.5" fill="#185FA5" opacity="0.4"/>
  
  <line x1="0" y1="0" x2="-30" y2="-30" stroke="#185FA5" stroke-width="1.5" opacity="0.6"/>
  <line x1="0" y1="0" x2="20" y2="-34" stroke="#185FA5" stroke-width="1.2" opacity="0.55"/>
  <line x1="0" y1="0" x2="-50" y2="-12" stroke="#185FA5" stroke-width="1" opacity="0.5"/>
  <line x1="0" y1="0" x2="-30" y2="30" stroke="#185FA5" stroke-width="1.5" opacity="0.6"/>
  <line x1="0" y1="0" x2="20" y2="34" stroke="#185FA5" stroke-width="1.2" opacity="0.55"/>
  <line x1="0" y1="0" x2="-50" y2="12" stroke="#185FA5" stroke-width="1" opacity="0.5"/>
  <line x1="0" y1="0" x2="36" y2="-10" stroke="#185FA5" stroke-width="1" opacity="0.55"/>
  <line x1="0" y1="0" x2="36" y2="10" stroke="#185FA5" stroke-width="1" opacity="0.55"/>
  
  <line x1="-30" y1="-30" x2="20" y2="-34" stroke="#185FA5" stroke-width="0.7" opacity="0.4"/>
  <line x1="-30" y1="-30" x2="-50" y2="-12" stroke="#185FA5" stroke-width="0.7" opacity="0.4"/>
  <line x1="-30" y1="30" x2="20" y2="34" stroke="#185FA5" stroke-width="0.7" opacity="0.4"/>
  <line x1="-30" y1="30" x2="-50" y2="12" stroke="#185FA5" stroke-width="0.7" opacity="0.4"/>
  <line x1="36" y1="-10" x2="20" y2="-34" stroke="#185FA5" stroke-width="0.7" opacity="0.35"/>
  <line x1="36" y1="10" x2="20" y2="34" stroke="#185FA5" stroke-width="0.7" opacity="0.35"/>
</g>

<line x1="126" y1="75" x2="166" y2="66" stroke="#185FA5" stroke-width="1.2" opacity="0.55"/>
<circle cx="166" cy="66" r="2.5" fill="#185FA5" opacity="0.55"/>

<path d="M103,88 L112,87 L119,78 L126,94 L133,74 L140,90 L147,76 L154,88 L159,74 L166,86" 
  fill="none" stroke="#185FA5" stroke-width="1.8" opacity="0.65" stroke-linecap="round" stroke-linejoin="round"/>
<circle cx="166" cy="86" r="3" fill="#185FA5" opacity="0.65"/>

<line x1="126" y1="95" x2="166" y2="106" stroke="#185FA5" stroke-width="1.2" opacity="0.55"/>
<circle cx="166" cy="106" r="2.5" fill="#185FA5" opacity="0.55"/>

<text x="172" y="68" font-family="Helvetica, Arial, sans-serif" font-size="34" font-weight="700" fill="#1a1a1a" letter-spacing="5">DATA</text>
<text x="172" y="98" font-family="Helvetica, Arial, sans-serif" font-size="34" font-weight="700" fill="#185FA5" letter-spacing="5">SCIENCE</text>
<text x="172" y="128" font-family="Helvetica, Arial, sans-serif" font-size="34" font-weight="700" fill="#1a1a1a" letter-spacing="5">DYNAMICS</text>

</svg>