<svg viewBox="0 0 400 400" xmlns="http://www.w3.org/2000/svg">
  <title>DUSC - Dramatic and Unusual Sightings Classifier</title>
  <defs>
    <radialGradient id="glow9" cx="50%" cy="50%" r="50%">
      <stop offset="0%" stop-color="#1D9E75" stop-opacity="0.18"/>
      <stop offset="100%" stop-color="#1D9E75" stop-opacity="0"/>
    </radialGradient>
  </defs>

  <circle cx="200" cy="200" r="155" fill="url(#glow9)"/>
  <circle cx="200" cy="200" r="168" fill="none" stroke="#1D9E75" stroke-width="1" opacity="0.4"/>
  <circle cx="200" cy="200" r="158" fill="none" stroke="#1D9E75" stroke-width="2" opacity="0.7"/>
  <circle cx="200" cy="200" r="152" fill="none" stroke="#1D9E75" stroke-width="0.5" opacity="0.4"/>
  <circle cx="200" cy="200" r="130" fill="none" stroke="#1D9E75" stroke-width="0.5" opacity="0.4"/>
  <circle cx="200" cy="200" r="100" fill="none" stroke="#1D9E75" stroke-width="0.5" opacity="0.4"/>
  <circle cx="200" cy="200" r="70"  fill="none" stroke="#1D9E75" stroke-width="0.5" opacity="0.45"/>
  <circle cx="200" cy="200" r="40"  fill="none" stroke="#1D9E75" stroke-width="0.5" opacity="0.5"/>

  <line x1="70"  y1="200" x2="330" y2="200" stroke="#1D9E75" stroke-width="0.5" opacity="0.3"/>
  <line x1="200" y1="70"  x2="200" y2="330" stroke="#1D9E75" stroke-width="0.5" opacity="0.3"/>

  <path d="M200,200 L200,72 A128,128 0 0,1 310,262 Z" fill="#1D9E75" opacity="0.07"/>
  <line x1="200" y1="200" x2="310" y2="262" stroke="#1D9E75" stroke-width="1" opacity="0.45"/>
  <line x1="200" y1="200" x2="200" y2="72"  stroke="#1D9E75" stroke-width="1" opacity="0.45"/>

  <ellipse cx="200" cy="240" rx="54" ry="14" fill="#0F6E56" stroke="#5DCAA5" stroke-width="1"/>
  <ellipse cx="200" cy="230" rx="24" ry="13" fill="#085041" stroke="#5DCAA5" stroke-width="0.8"/>
  <ellipse cx="200" cy="251" rx="36" ry="5.5" fill="#1D9E75" opacity="0.35"/>
  <circle cx="162" cy="240" r="2.5" fill="#9FE1CB"/>
  <circle cx="178" cy="245" r="2.5" fill="#5DCAA5"/>
  <circle cx="200" cy="247" r="2.5" fill="#9FE1CB"/>
  <circle cx="222" cy="245" r="2.5" fill="#5DCAA5"/>
  <circle cx="238" cy="240" r="2.5" fill="#9FE1CB"/>

  <circle cx="268" cy="142" r="3.5" fill="#5DCAA5" opacity="0.9"/>
  <circle cx="270" cy="141" r="1.5" fill="#E1F5EE"/>
  <circle cx="130" cy="258" r="2.5" fill="#5DCAA5" opacity="0.6"/>
  <circle cx="245" cy="165" r="2"   fill="#5DCAA5" opacity="0.5"/>
  <circle cx="148" cy="138" r="1.8" fill="#9FE1CB" opacity="0.5"/>

  <g stroke="#1D9E75" stroke-width="1.2" opacity="0.6">
    <line x1="200" y1="32"  x2="200" y2="44"/>
    <line x1="200" y1="356" x2="200" y2="368"/>
    <line x1="32"  y1="200" x2="44"  y2="200"/>
    <line x1="356" y1="200" x2="368" y2="200"/>
  </g>

  <text x="200" y="195" text-anchor="middle"
        font-family="Helvetica Neue,Helvetica,Arial,sans-serif"
        font-size="52" font-weight="700" fill="#1D9E75" letter-spacing="8">DUSC</text>

  <g font-family="Helvetica Neue,Helvetica,Arial,sans-serif" font-size="10.5" font-weight="700" fill="#1D9E75">
    <text x="91.99" y="109.37" text-anchor="middle" transform="rotate(310.0,91.99,109.37)">U</text>
    <text x="98.04" y="102.60" text-anchor="middle" transform="rotate(313.7,98.04,102.60)">A</text>
    <text x="104.52" y="96.24" text-anchor="middle" transform="rotate(317.4,104.52,96.24)">P</text>
    <text x="115.34" y="87.25" text-anchor="middle" transform="rotate(323.1,115.34,87.25)">S</text>
    <text x="122.77" y="82.03" text-anchor="middle" transform="rotate(326.8,122.77,82.03)">I</text>
    <text x="130.52" y="77.30" text-anchor="middle" transform="rotate(330.5,130.52,77.30)">G</text>
    <text x="138.57" y="73.09" text-anchor="middle" transform="rotate(334.2,138.57,73.09)">H</text>
    <text x="146.86" y="69.40" text-anchor="middle" transform="rotate(337.9,146.86,69.40)">T</text>
    <text x="155.38" y="66.25" text-anchor="middle" transform="rotate(341.5,155.38,66.25)">I</text>
    <text x="164.08" y="63.65" text-anchor="middle" transform="rotate(345.2,164.08,63.65)">N</text>
    <text x="172.93" y="61.62" text-anchor="middle" transform="rotate(348.9,172.93,61.62)">G</text>
    <text x="181.89" y="60.17" text-anchor="middle" transform="rotate(352.6,181.89,60.17)">S</text>
    <text x="195.91" y="59.06" text-anchor="middle" transform="rotate(358.3,195.91,59.06)">C</text>
    <text x="204.99" y="59.09" text-anchor="middle" transform="rotate(362.0,204.99,59.09)">L</text>
    <text x="214.05" y="59.70" text-anchor="middle" transform="rotate(365.7,214.05,59.70)">A</text>
    <text x="223.05" y="60.90" text-anchor="middle" transform="rotate(369.4,223.05,60.90)">S</text>
    <text x="231.96" y="62.67" text-anchor="middle" transform="rotate(373.1,231.96,62.67)">S</text>
    <text x="240.73" y="65.01" text-anchor="middle" transform="rotate(376.8,240.73,65.01)">I</text>
    <text x="249.33" y="67.91" text-anchor="middle" transform="rotate(380.5,249.33,67.91)">F</text>
    <text x="257.73" y="71.36" text-anchor="middle" transform="rotate(384.2,257.73,71.36)">I</text>
    <text x="265.89" y="75.34" text-anchor="middle" transform="rotate(387.9,265.89,75.34)">C</text>
    <text x="273.78" y="79.84" text-anchor="middle" transform="rotate(391.5,273.78,79.84)">A</text>
    <text x="281.36" y="84.84" text-anchor="middle" transform="rotate(395.2,281.36,84.84)">T</text>
    <text x="288.60" y="90.31" text-anchor="middle" transform="rotate(398.9,288.60,90.31)">I</text>
    <text x="295.48" y="96.24" text-anchor="middle" transform="rotate(402.6,295.48,96.24)">O</text>
    <text x="301.96" y="102.60" text-anchor="middle" transform="rotate(406.3,301.96,102.60)">N</text>
    <text x="308.01" y="109.37" text-anchor="middle" transform="rotate(410.0,308.01,109.37)">S</text>
  </g>

  <g font-family="Helvetica Neue,Helvetica,Arial,sans-serif" font-size="9.5" font-weight="700" fill="#5DCAA5">
    <text x="77.89" y="270.50" text-anchor="middle" transform="rotate(60.0,77.89,270.50)">D</text>
    <text x="81.94" y="277.09" text-anchor="middle" transform="rotate(56.9,81.94,277.09)">R</text>
    <text x="86.34" y="283.44" text-anchor="middle" transform="rotate(53.7,86.34,283.44)">A</text>
    <text x="91.08" y="289.54" text-anchor="middle" transform="rotate(50.6,91.08,289.54)">M</text>
    <text x="96.15" y="295.38" text-anchor="middle" transform="rotate(47.4,96.15,295.38)">A</text>
    <text x="101.54" y="300.92" text-anchor="middle" transform="rotate(44.3,101.54,300.92)">T</text>
    <text x="107.21" y="306.17" text-anchor="middle" transform="rotate(41.2,107.21,306.17)">I</text>
    <text x="113.17" y="311.09" text-anchor="middle" transform="rotate(38.0,113.17,311.09)">C</text>
    <text x="122.91" y="318.06" text-anchor="middle" transform="rotate(33.1,122.91,318.06)">A</text>
    <text x="129.50" y="322.11" text-anchor="middle" transform="rotate(30.0,129.50,322.11)">N</text>
    <text x="136.30" y="325.79" text-anchor="middle" transform="rotate(26.9,136.30,325.79)">D</text>
    <text x="147.20" y="330.74" text-anchor="middle" transform="rotate(22.0,147.20,330.74)">U</text>
    <text x="154.45" y="333.44" text-anchor="middle" transform="rotate(18.8,154.45,333.44)">N</text>
    <text x="161.83" y="335.74" text-anchor="middle" transform="rotate(15.7,161.83,335.74)">U</text>
    <text x="169.32" y="337.62" text-anchor="middle" transform="rotate(12.6,169.32,337.62)">S</text>
    <text x="176.91" y="339.10" text-anchor="middle" transform="rotate(9.4,176.91,339.10)">U</text>
    <text x="184.57" y="340.15" text-anchor="middle" transform="rotate(6.3,184.57,340.15)">A</text>
    <text x="192.27" y="340.79" text-anchor="middle" transform="rotate(3.1,192.27,340.79)">L</text>
    <text x="204.25" y="340.94" text-anchor="middle" transform="rotate(-1.7,204.25,340.94)">S</text>
    <text x="211.97" y="340.49" text-anchor="middle" transform="rotate(-4.9,211.97,340.49)">I</text>
    <text x="219.65" y="339.62" text-anchor="middle" transform="rotate(-8.0,219.65,339.62)">G</text>
    <text x="227.27" y="338.34" text-anchor="middle" transform="rotate(-11.2,227.27,338.34)">H</text>
    <text x="234.81" y="336.64" text-anchor="middle" transform="rotate(-14.3,234.81,336.64)">T</text>
    <text x="242.25" y="334.52" text-anchor="middle" transform="rotate(-17.4,242.25,334.52)">I</text>
    <text x="249.55" y="332.01" text-anchor="middle" transform="rotate(-20.6,249.55,332.01)">N</text>
    <text x="256.71" y="329.09" text-anchor="middle" transform="rotate(-23.7,256.71,329.09)">G</text>
    <text x="263.70" y="325.79" text-anchor="middle" transform="rotate(-26.9,263.70,325.79)">S</text>
    <text x="274.15" y="319.93" text-anchor="middle" transform="rotate(-31.7,274.15,319.93)">C</text>
    <text x="280.61" y="315.68" text-anchor="middle" transform="rotate(-34.9,280.61,315.68)">L</text>
    <text x="286.83" y="311.09" text-anchor="middle" transform="rotate(-38.0,286.83,311.09)">A</text>
    <text x="292.79" y="306.17" text-anchor="middle" transform="rotate(-41.2,292.79,306.17)">S</text>
    <text x="298.46" y="300.92" text-anchor="middle" transform="rotate(-44.3,298.46,300.92)">S</text>
    <text x="303.85" y="295.38" text-anchor="middle" transform="rotate(-47.4,303.85,295.38)">I</text>
    <text x="308.92" y="289.54" text-anchor="middle" transform="rotate(-50.6,308.92,289.54)">F</text>
    <text x="313.66" y="283.44" text-anchor="middle" transform="rotate(-53.7,313.66,283.44)">I</text>
    <text x="318.06" y="277.09" text-anchor="middle" transform="rotate(-56.9,318.06,277.09)">E</text>
    <text x="322.11" y="270.50" text-anchor="middle" transform="rotate(-60.0,322.11,270.50)">R</text>
  </g>

</svg>