<?xml version="1.0" encoding="UTF-8"?>
<svg xmlns="http://www.w3.org/2000/svg" id="Layer_2" data-name="Layer 2" viewBox="0 0 386.27 55">
  <defs>
    <style>
      .cls-1 {
        fill: #ed337d;
      }

      .cls-2 {
        fill: #fff;
      }
    </style>
  </defs>
  <g id="Layer_1-2" data-name="Layer 1">
    <g>
      <g>
        <path class="cls-2" d="M43.44,43.22h-25.53l-4.87,11.78H0L24.51,0h12.57l24.59,54.99h-13.35l-4.87-11.78ZM39.44,33.55l-8.72-21.05-8.72,21.05h17.44Z"></path>
        <path class="cls-2" d="M69.39,0h12.73v54.99h-12.73V0Z"></path>
      </g>
      <g>
        <path class="cls-2" d="M167.86,0h24.98c17.99,0,30.32,10.84,30.32,27.5s-12.33,27.5-30.32,27.5h-24.98V0ZM192.22,44.55c10.92,0,18.07-6.52,18.07-17.05s-7.15-17.05-18.07-17.05h-11.63v34.09h11.63Z"></path>
        <path class="cls-2" d="M268.03,43.22h-25.53l-4.87,11.78h-13.04L249.09,0h12.57l24.59,54.99h-13.35l-4.87-11.78ZM264.02,33.55l-8.72-21.05-8.72,21.05h17.44Z"></path>
        <path class="cls-2" d="M299.07,10.38h-17.6V0h47.92v10.37h-17.6v44.62h-12.73V10.38Z"></path>
        <path class="cls-2" d="M368.04,43.22h-25.53l-4.87,11.78h-13.04L349.11,0h12.57l24.59,54.99h-13.35l-4.87-11.78ZM364.03,33.55l-8.72-21.05-8.72,21.05h17.44Z"></path>
      </g>
      <polygon class="cls-1" points="148.25 9.17 148.25 0 139.08 0 129.91 0 129.91 9.17 120.75 9.17 120.75 0 111.58 0 102.41 0 102.41 9.17 93.25 9.17 93.25 18.33 93.25 27.5 102.41 27.5 102.41 36.67 111.58 36.67 111.58 45.83 120.75 45.83 120.75 55 129.91 55 129.91 45.83 139.08 45.83 139.08 36.67 148.25 36.67 148.25 27.5 157.41 27.5 157.41 18.33 157.41 9.17 148.25 9.17"></polygon>
    </g>
  </g>
</svg>
