<svg viewBox="0 0 240 300" xmlns="http://www.w3.org/2000/svg">
  <rect x="50" y="10" width="140" height="140" rx="34" fill="#185FA5"/>
  <g transform="translate(120,80) scale(0.85)">
    <circle cx="0" cy="0" r="13" fill="#ffffff"/>
    <circle cx="-30" cy="-30" r="7" fill="#ffffff" opacity="0.85"/>
    <circle cx="20" cy="-34" r="6" fill="#ffffff" opacity="0.7"/>
    <circle cx="-50" cy="-12" r="5" fill="#ffffff" opacity="0.55"/>
    <circle cx="-30" cy="30" r="7" fill="#ffffff" opacity="0.85"/>
    <circle cx="20" cy="34" r="6" fill="#ffffff" opacity="0.7"/>
    <circle cx="-50" cy="12" r="5" fill="#ffffff" opacity="0.55"/>
    <circle cx="36" cy="-10" r="4.5" fill="#ffffff" opacity="0.5"/>
    <circle cx="36" cy="10" r="4.5" fill="#ffffff" opacity="0.5"/>
    <line x1="0" y1="0" x2="-30" y2="-30" stroke="#ffffff" stroke-width="1.6" opacity="0.7"/>
    <line x1="0" y1="0" x2="20" y2="-34" stroke="#ffffff" stroke-width="1.3" opacity="0.65"/>
    <line x1="0" y1="0" x2="-50" y2="-12" stroke="#ffffff" stroke-width="1.1" opacity="0.6"/>
    <line x1="0" y1="0" x2="-30" y2="30" stroke="#ffffff" stroke-width="1.6" opacity="0.7"/>
    <line x1="0" y1="0" x2="20" y2="34" stroke="#ffffff" stroke-width="1.3" opacity="0.65"/>
    <line x1="0" y1="0" x2="-50" y2="12" stroke="#ffffff" stroke-width="1.1" opacity="0.6"/>
    <line x1="0" y1="0" x2="36" y2="-10" stroke="#ffffff" stroke-width="1.1" opacity="0.65"/>
    <line x1="0" y1="0" x2="36" y2="10" stroke="#ffffff" stroke-width="1.1" opacity="0.65"/>
  </g>
  <text x="120" y="235" text-anchor="middle" font-family="Helvetica, Arial, sans-serif" font-size="56" font-weight="800" fill="#185FA5" letter-spacing="3">APPS</text>
</svg>